<?xml version="1.0" encoding="UTF-8"?>
<!DOCTYPE svg PUBLIC "-//W3C//DTD SVG 1.1//EN" "http://www.w3.org/Graphics/SVG/1.1/DTD/svg11.dtd">
<svg xmlns="http://www.w3.org/2000/svg" version="1.1" width="512px" height="512px" style="shape-rendering:geometricPrecision; text-rendering:geometricPrecision; image-rendering:optimizeQuality; fill-rule:evenodd; clip-rule:evenodd" xmlns:xlink="http://www.w3.org/1999/xlink">
<g><path style="opacity:0.978" fill="#34c3fe" d="M 231.5,-0.5 C 239.167,-0.5 246.833,-0.5 254.5,-0.5C 254.5,13.1667 254.5,26.8333 254.5,40.5C 244.375,40.124 234.375,40.7906 224.5,42.5C 224.5,28.5 224.5,14.5 224.5,0.5C 227.059,0.801552 229.393,0.468218 231.5,-0.5 Z"/></g>
<g><path style="opacity:0.977" fill="#37c0fe" d="M 254.5,-0.5 C 257.5,-0.5 260.5,-0.5 263.5,-0.5C 263.5,13.1667 263.5,26.8333 263.5,40.5C 260.5,40.5 257.5,40.5 254.5,40.5C 254.5,26.8333 254.5,13.1667 254.5,-0.5 Z"/></g>
<g><path style="opacity:0.976" fill="#3bbdfe" d="M 263.5,-0.5 C 268.833,-0.5 274.167,-0.5 279.5,-0.5C 285.518,0.368729 291.518,1.36873 297.5,2.5C 297.5,16.1667 297.5,29.8333 297.5,43.5C 286.242,41.6762 274.909,40.6762 263.5,40.5C 263.5,26.8333 263.5,13.1667 263.5,-0.5 Z"/></g>
<g><path style="opacity:0.973" fill="#30c6fe" d="M 224.5,0.5 C 224.5,14.5 224.5,28.5 224.5,42.5C 221.763,42.4013 219.096,42.7347 216.5,43.5C 216.5,29.5 216.5,15.5 216.5,1.5C 219.206,1.4249 221.873,1.09157 224.5,0.5 Z"/></g>
<g><path style="opacity:0.973" fill="#2dc9fe" d="M 216.5,1.5 C 216.5,15.5 216.5,29.5 216.5,43.5C 208.086,44.7827 199.753,46.4494 191.5,48.5C 191.5,34.5 191.5,20.5 191.5,6.5C 199.697,4.2996 208.03,2.63293 216.5,1.5 Z"/></g>
<g><path style="opacity:0.974" fill="#3ebbfe" d="M 297.5,2.5 C 300.237,2.40132 302.904,2.73465 305.5,3.5C 305.5,17.5 305.5,31.5 305.5,45.5C 302.833,44.8333 300.167,44.1667 297.5,43.5C 297.5,29.8333 297.5,16.1667 297.5,2.5 Z"/></g>
<g><path style="opacity:0.973" fill="#41b8fe" d="M 305.5,3.5 C 322.223,6.43047 338.556,10.7638 354.5,16.5C 354.5,31.5 354.5,46.5 354.5,61.5C 338.843,54.17 322.51,48.8367 305.5,45.5C 305.5,31.5 305.5,17.5 305.5,3.5 Z"/></g>
<g><path style="opacity:0.974" fill="#29ccfe" d="M 191.5,6.5 C 191.5,20.5 191.5,34.5 191.5,48.5C 184.908,50.6968 178.241,52.6968 171.5,54.5C 171.5,40.1667 171.5,25.8333 171.5,11.5C 178.083,9.52093 184.75,7.85426 191.5,6.5 Z"/></g>
<g><path style="opacity:0.972" fill="#26cffe" d="M 171.5,11.5 C 171.5,25.8333 171.5,40.1667 171.5,54.5C 167.134,57.0116 162.467,59.0116 157.5,60.5C 157.5,45.8333 157.5,31.1667 157.5,16.5C 162.026,14.4359 166.692,12.7692 171.5,11.5 Z"/></g>
<g><path style="opacity:0.969" fill="#23d2fe" d="M 157.5,16.5 C 157.5,31.1667 157.5,45.8333 157.5,60.5C 150.872,63.8139 144.205,67.1473 137.5,70.5C 137.5,55.1667 137.5,39.8333 137.5,24.5C 143.937,21.2824 150.604,18.6157 157.5,16.5 Z"/></g>
<g><path style="opacity:0.97" fill="#44b5fe" d="M 354.5,16.5 C 355.995,16.9887 357.329,17.6554 358.5,18.5C 358.5,33.1667 358.5,47.8333 358.5,62.5C 357.167,62.1667 355.833,61.8333 354.5,61.5C 354.5,46.5 354.5,31.5 354.5,16.5 Z"/></g>
<g><path style="opacity:0.969" fill="#47b2fe" d="M 358.5,18.5 C 379.869,26.3454 399.535,37.0121 417.5,50.5C 417.5,68.1667 417.5,85.8333 417.5,103.5C 399.715,87.1091 380.048,73.4424 358.5,62.5C 358.5,47.8333 358.5,33.1667 358.5,18.5 Z"/></g>
<g><path style="opacity:0.971" fill="#20d5fe" d="M 137.5,24.5 C 137.5,39.8333 137.5,55.1667 137.5,70.5C 135.337,72.0828 133.004,73.4161 130.5,74.5C 130.5,59.1667 130.5,43.8333 130.5,28.5C 132.635,26.9291 134.968,25.5957 137.5,24.5 Z"/></g>
<g><path style="opacity:0.97" fill="#1cd8fe" d="M 130.5,28.5 C 130.5,43.8333 130.5,59.1667 130.5,74.5C 123.205,79.8213 115.871,85.1546 108.5,90.5C 108.5,73.8333 108.5,57.1667 108.5,40.5C 115.505,35.9955 122.839,31.9955 130.5,28.5 Z"/></g>
<g><path style="opacity:0.97" fill="#19dbfe" d="M 108.5,40.5 C 108.5,57.1667 108.5,73.8333 108.5,90.5C 105.859,92.8044 103.192,95.1377 100.5,97.5C 100.5,80.1667 100.5,62.8333 100.5,45.5C 103.167,43.8333 105.833,42.1667 108.5,40.5 Z"/></g>
<g><path style="opacity:0.969" fill="#15defe" d="M 100.5,45.5 C 100.5,62.8333 100.5,80.1667 100.5,97.5C 92.798,104.201 85.798,111.534 79.5,119.5C 79.5,100.167 79.5,80.8333 79.5,61.5C 85.922,55.4503 92.922,50.117 100.5,45.5 Z"/></g>
<g><path style="opacity:0.969" fill="#4baffe" d="M 417.5,50.5 C 428.077,57.7408 437.743,66.0741 446.5,75.5C 446.5,97.1667 446.5,118.833 446.5,140.5C 438.009,127.331 428.342,114.997 417.5,103.5C 417.5,85.8333 417.5,68.1667 417.5,50.5 Z"/></g>
<g><path style="opacity:0.968" fill="#13e1fe" d="M 79.5,61.5 C 79.5,80.8333 79.5,100.167 79.5,119.5C 78.1363,121.191 76.803,122.858 75.5,124.5C 75.5,104.833 75.5,85.1667 75.5,65.5C 76.5,63.8333 77.8333,62.5 79.5,61.5 Z"/></g>
<g><path style="opacity:0.967" fill="#0fe4fe" d="M 75.5,65.5 C 75.5,85.1667 75.5,104.833 75.5,124.5C 65.6051,138.291 57.2717,152.958 50.5,168.5C 50.5,142.5 50.5,116.5 50.5,90.5C 57.8544,81.1456 66.1877,72.8123 75.5,65.5 Z"/></g>
<g><path style="opacity:0.97" fill="#4dadfe" d="M 446.5,75.5 C 483.626,111.753 505.292,155.753 511.5,207.5C 511.5,220.5 511.5,233.5 511.5,246.5C 508.444,273.7 500.278,299.366 487,323.5C 477.55,330.884 467.716,331.384 457.5,325C 451.936,318.861 450.103,311.694 452,303.5C 478.28,248.117 476.447,193.784 446.5,140.5C 446.5,118.833 446.5,97.1667 446.5,75.5 Z"/></g>
<g><path style="opacity:0.962" fill="#0ce7fe" d="M 50.5,90.5 C 50.5,116.5 50.5,142.5 50.5,168.5C 49.7387,172.784 48.4053,176.784 46.5,180.5C 46.5,152.167 46.5,123.833 46.5,95.5C 47.604,93.6115 48.9373,91.9448 50.5,90.5 Z"/></g>
<g><path style="opacity:0.979" fill="#09e9fe" d="M 46.5,95.5 C 46.5,123.833 46.5,152.167 46.5,180.5C 38.5189,211.831 38.5189,243.164 46.5,274.5C 46.5,344.167 46.5,413.833 46.5,483.5C 39.1667,486.5 31.8333,489.5 24.5,492.5C 24.5,464.5 24.5,436.5 24.5,408.5C 31.1038,391.695 38.1038,375.028 45.5,358.5C 37.2626,348.268 30.2626,337.268 24.5,325.5C 24.5,259.833 24.5,194.167 24.5,128.5C 30.6062,116.603 37.9395,105.603 46.5,95.5 Z"/></g>
<g><path style="opacity:0.984" fill="#05ecfe" d="M 24.5,128.5 C 24.5,194.167 24.5,259.833 24.5,325.5C 21.6589,321.151 19.3255,316.484 17.5,311.5C 17.5,255.5 17.5,199.5 17.5,143.5C 19.0444,138.081 21.3777,133.081 24.5,128.5 Z"/></g>
<g><path style="opacity:0.959" fill="#02effe" d="M 17.5,143.5 C 17.5,199.5 17.5,255.5 17.5,311.5C 8.07143,291.118 2.07143,269.784 -0.5,247.5C -0.5,234.167 -0.5,220.833 -0.5,207.5C 1.26789,195.162 3.76789,182.829 7,170.5C 9.64229,161.057 13.1423,152.057 17.5,143.5 Z"/></g>
<g><path style="opacity:0.983" fill="#26cffe" d="M 171.5,202.5 C 171.5,215.167 171.5,227.833 171.5,240.5C 166.833,241.833 162.167,241.833 157.5,240.5C 157.5,227.833 157.5,215.167 157.5,202.5C 162.167,201.167 166.833,201.167 171.5,202.5 Z"/></g>
<g><path style="opacity:0.95" fill="#35c2fe" d="M 254.5,201.5 C 254.5,214.833 254.5,228.167 254.5,241.5C 241.506,241.172 234.839,234.506 234.5,221.5C 234.839,208.494 241.506,201.828 254.5,201.5 Z"/></g>
<g><path style="opacity:0.978" fill="#37c0fe" d="M 254.5,201.5 C 257.829,201.215 260.829,201.882 263.5,203.5C 263.5,215.5 263.5,227.5 263.5,239.5C 260.829,241.118 257.829,241.785 254.5,241.5C 254.5,228.167 254.5,214.833 254.5,201.5 Z"/></g>
<g><path style="opacity:0.96" fill="#42b6fe" d="M 354.5,203.5 C 354.5,215.5 354.5,227.5 354.5,239.5C 343.482,243.945 334.316,241.612 327,232.5C 323.667,225.167 323.667,217.833 327,210.5C 334.316,201.388 343.482,199.055 354.5,203.5 Z"/></g>
<g><path style="opacity:0.925" fill="#24d1fe" d="M 157.5,202.5 C 157.5,215.167 157.5,227.833 157.5,240.5C 146.499,235.834 142.333,227.5 145,215.5C 146.649,208.686 150.815,204.352 157.5,202.5 Z"/></g>
<g><path style="opacity:0.925" fill="#28cdfe" d="M 171.5,202.5 C 182.501,207.166 186.667,215.5 184,227.5C 182.351,234.314 178.185,238.648 171.5,240.5C 171.5,227.833 171.5,215.167 171.5,202.5 Z"/></g>
<g><path style="opacity:0.916" fill="#39bffe" d="M 263.5,203.5 C 271.173,206.879 274.839,212.879 274.5,221.5C 274.839,230.121 271.173,236.121 263.5,239.5C 263.5,227.5 263.5,215.5 263.5,203.5 Z"/></g>
<g><path style="opacity:0.869" fill="#44b5fe" d="M 354.5,203.5 C 361.444,207.379 364.777,213.379 364.5,221.5C 364.777,229.621 361.444,235.621 354.5,239.5C 354.5,227.5 354.5,215.5 354.5,203.5 Z"/></g>
<g><path style="opacity:0.961" fill="#3cbcfe" d="M 297.5,272.5 C 297.5,309.167 297.5,345.833 297.5,382.5C 296.21,381.942 295.377,380.942 295,379.5C 285.471,350.586 276.971,321.42 269.5,292C 271.491,275.197 280.824,268.697 297.5,272.5 Z"/></g>
<g><path style="opacity:0.988" fill="#3ebbfe" d="M 297.5,272.5 C 300.167,273.167 302.833,273.833 305.5,274.5C 305.5,313.167 305.5,351.833 305.5,390.5C 301.93,388.719 299.263,386.052 297.5,382.5C 297.5,345.833 297.5,309.167 297.5,272.5 Z"/></g>
<g><path style="opacity:0.99" fill="#0ce7fe" d="M 46.5,274.5 C 48.2043,277.939 49.5376,281.605 50.5,285.5C 50.5,350.833 50.5,416.167 50.5,481.5C 49.1667,482.167 47.8333,482.833 46.5,483.5C 46.5,413.833 46.5,344.167 46.5,274.5 Z"/></g>
<g><path style="opacity:0.978" fill="#41b8fe" d="M 305.5,274.5 C 321.894,279.015 338.228,283.681 354.5,288.5C 354.5,302.5 354.5,316.5 354.5,330.5C 343.382,327.97 332.382,324.97 321.5,321.5C 321.167,322 320.833,322.5 320.5,323C 324.258,335.202 328.091,347.368 332,359.5C 339.702,367.035 347.202,374.702 354.5,382.5C 354.5,401.5 354.5,420.5 354.5,439.5C 337.833,423.5 321.5,407.167 305.5,390.5C 305.5,351.833 305.5,313.167 305.5,274.5 Z"/></g>
<g><path style="opacity:0.977" fill="#0fe4fe" d="M 50.5,285.5 C 57.5333,301.234 65.8666,316.234 75.5,330.5C 75.5,350.833 75.5,371.167 75.5,391.5C 70.1221,405.26 64.4554,418.926 58.5,432.5C 58.8333,432.833 59.1667,433.167 59.5,433.5C 64.8593,431.152 70.1926,428.819 75.5,426.5C 75.5,441.5 75.5,456.5 75.5,471.5C 67.1667,474.833 58.8333,478.167 50.5,481.5C 50.5,416.167 50.5,350.833 50.5,285.5 Z"/></g>
<g><path style="opacity:0.971" fill="#44b5fe" d="M 354.5,288.5 C 355.959,288.433 357.292,288.766 358.5,289.5C 358.5,303.5 358.5,317.5 358.5,331.5C 356.901,331.768 355.568,331.434 354.5,330.5C 354.5,316.5 354.5,302.5 354.5,288.5 Z"/></g>
<g><path style="opacity:0.975" fill="#47b1fe" d="M 358.5,289.5 C 367.241,291.247 375.574,294.08 383.5,298C 395.035,309.368 406.369,320.868 417.5,332.5C 417.5,351.5 417.5,370.5 417.5,389.5C 397.807,370.139 378.14,350.806 358.5,331.5C 358.5,317.5 358.5,303.5 358.5,289.5 Z"/></g>
<g><path style="opacity:0.958" fill="#13e1fe" d="M 75.5,330.5 C 77.1667,331.5 78.5,332.833 79.5,334.5C 79.5,350.5 79.5,366.5 79.5,382.5C 78.5371,385.744 77.2038,388.744 75.5,391.5C 75.5,371.167 75.5,350.833 75.5,330.5 Z"/></g>
<g><path style="opacity:0.978" fill="#4baffe" d="M 417.5,332.5 C 427.5,341.833 437.167,351.5 446.5,361.5C 446.5,390.833 446.5,420.167 446.5,449.5C 442.704,453.798 438.704,457.964 434.5,462C 438.003,465.58 442.003,468.414 446.5,470.5C 446.5,484.167 446.5,497.833 446.5,511.5C 444.5,511.5 442.5,511.5 440.5,511.5C 432.239,509.536 424.573,506.203 417.5,501.5C 417.5,474.5 417.5,447.5 417.5,420.5C 422.297,415.202 427.297,410.035 432.5,405C 427.297,399.965 422.297,394.798 417.5,389.5C 417.5,370.5 417.5,351.5 417.5,332.5 Z"/></g>
<g><path style="opacity:0.9" fill="#14dffe" d="M 79.5,334.5 C 88.6761,342.188 91.5094,351.855 88,363.5C 85.2405,369.977 82.4071,376.31 79.5,382.5C 79.5,366.5 79.5,350.5 79.5,334.5 Z"/></g>
<g><path style="opacity:0.973" fill="#4dadfe" d="M 446.5,361.5 C 464.132,378.632 481.632,395.965 499,413.5C 504.819,421.8 508.985,430.8 511.5,440.5C 511.5,447.833 511.5,455.167 511.5,462.5C 504.833,488.5 488.5,504.833 462.5,511.5C 457.167,511.5 451.833,511.5 446.5,511.5C 446.5,497.833 446.5,484.167 446.5,470.5C 464.14,471.361 471.973,463.027 470,445.5C 468.067,441.302 465.401,437.635 462,434.5C 456.965,439.703 451.798,444.703 446.5,449.5C 446.5,420.167 446.5,390.833 446.5,361.5 Z"/></g>
<g><path style="opacity:0.974" fill="#44b5fe" d="M 354.5,382.5 C 356.167,383.5 357.5,384.833 358.5,386.5C 358.5,405.5 358.5,424.5 358.5,443.5C 356.833,442.5 355.5,441.167 354.5,439.5C 354.5,420.5 354.5,401.5 354.5,382.5 Z"/></g>
<g><path style="opacity:0.974" fill="#47b2fe" d="M 358.5,386.5 C 374.132,401.632 389.632,416.965 405,432.5C 409.036,428.296 413.202,424.296 417.5,420.5C 417.5,447.5 417.5,474.5 417.5,501.5C 397.196,482.863 377.53,463.53 358.5,443.5C 358.5,424.5 358.5,405.5 358.5,386.5 Z"/></g>
<g><path style="opacity:0.97" fill="#23d2fe" d="M 157.5,394.5 C 157.5,408.833 157.5,423.167 157.5,437.5C 150.833,439.833 144.167,442.167 137.5,444.5C 137.5,429.833 137.5,415.167 137.5,400.5C 143.644,396.762 150.31,394.762 157.5,394.5 Z"/></g>
<g><path style="opacity:0.97" fill="#26cffe" d="M 157.5,394.5 C 162.644,395.083 167.31,396.75 171.5,399.5C 171.5,413.833 171.5,428.167 171.5,442.5C 166.833,440.833 162.167,439.167 157.5,437.5C 157.5,423.167 157.5,408.833 157.5,394.5 Z"/></g>
<g><path style="opacity:0.972" fill="#29ccfe" d="M 171.5,399.5 C 178.241,401.303 184.908,403.303 191.5,405.5C 191.5,419.5 191.5,433.5 191.5,447.5C 184.749,446.146 178.082,444.479 171.5,442.5C 171.5,428.167 171.5,413.833 171.5,399.5 Z"/></g>
<g><path style="opacity:0.971" fill="#20d5fe" d="M 137.5,400.5 C 137.5,415.167 137.5,429.833 137.5,444.5C 135.491,446.065 133.157,447.065 130.5,447.5C 130.5,432.833 130.5,418.167 130.5,403.5C 132.713,402.227 135.046,401.227 137.5,400.5 Z"/></g>
<g><path style="opacity:0.97" fill="#1cd8fe" d="M 130.5,403.5 C 130.5,418.167 130.5,432.833 130.5,447.5C 123.323,451.011 115.99,454.344 108.5,457.5C 108.5,442.5 108.5,427.5 108.5,412.5C 115.828,409.501 123.162,406.501 130.5,403.5 Z"/></g>
<g><path style="opacity:0.974" fill="#2dc9fe" d="M 191.5,405.5 C 199.802,407.326 208.136,408.992 216.5,410.5C 216.5,424.5 216.5,438.5 216.5,452.5C 208.17,450.944 199.837,449.278 191.5,447.5C 191.5,433.5 191.5,419.5 191.5,405.5 Z"/></g>
<g><path style="opacity:0.977" fill="#05ecfe" d="M 24.5,408.5 C 24.5,436.5 24.5,464.5 24.5,492.5C 22.1667,492.5 19.8333,492.5 17.5,492.5C 17.5,470.167 17.5,447.833 17.5,425.5C 19.2671,419.515 21.6004,413.848 24.5,408.5 Z"/></g>
<g><path style="opacity:0.975" fill="#30c6fe" d="M 216.5,410.5 C 219.127,411.092 221.794,411.425 224.5,411.5C 224.5,425.167 224.5,438.833 224.5,452.5C 221.833,452.5 219.167,452.5 216.5,452.5C 216.5,438.5 216.5,424.5 216.5,410.5 Z"/></g>
<g><path style="opacity:0.975" fill="#34c3fe" d="M 224.5,411.5 C 234.432,412.986 244.432,413.653 254.5,413.5C 254.5,427.167 254.5,440.833 254.5,454.5C 244.291,454.712 234.291,454.046 224.5,452.5C 224.5,438.833 224.5,425.167 224.5,411.5 Z"/></g>
<g><path style="opacity:0.97" fill="#19dbfe" d="M 108.5,412.5 C 108.5,427.5 108.5,442.5 108.5,457.5C 105.833,458.5 103.167,459.5 100.5,460.5C 100.5,445.833 100.5,431.167 100.5,416.5C 103.005,414.989 105.672,413.655 108.5,412.5 Z"/></g>
<g><path style="opacity:0.976" fill="#37c0fe" d="M 254.5,413.5 C 257.5,413.5 260.5,413.5 263.5,413.5C 263.5,427.167 263.5,440.833 263.5,454.5C 260.5,454.5 257.5,454.5 254.5,454.5C 254.5,440.833 254.5,427.167 254.5,413.5 Z"/></g>
<g><path style="opacity:0.951" fill="#3abefe" d="M 263.5,413.5 C 281.499,413.665 289.333,422.665 287,440.5C 282.561,450.757 274.728,455.423 263.5,454.5C 263.5,440.833 263.5,427.167 263.5,413.5 Z"/></g>
<g><path style="opacity:0.971" fill="#15defe" d="M 100.5,416.5 C 100.5,431.167 100.5,445.833 100.5,460.5C 93.5821,463.695 86.5821,466.695 79.5,469.5C 79.5,454.833 79.5,440.167 79.5,425.5C 86.0835,421.713 93.0835,418.713 100.5,416.5 Z"/></g>
<g><path style="opacity:0.94" fill="#03effe" d="M 17.5,425.5 C 17.5,447.833 17.5,470.167 17.5,492.5C 8.82299,491.173 2.82299,486.507 -0.5,478.5C -0.5,474.5 -0.5,470.5 -0.5,466.5C 5.22512,452.716 11.2251,439.049 17.5,425.5 Z"/></g>
<g><path style="opacity:0.97" fill="#13e1fe" d="M 79.5,425.5 C 79.5,440.167 79.5,454.833 79.5,469.5C 78.1667,470.167 76.8333,470.833 75.5,471.5C 75.5,456.5 75.5,441.5 75.5,426.5C 76.7079,425.766 78.0413,425.433 79.5,425.5 Z"/></g>
</svg>
